<svg xmlns="http://www.w3.org/2000/svg" width="1800" height="620" viewBox="0 0 1800 620" shape-rendering="crispEdges">
  <rect x="8" y="8" width="1784" height="604" fill="none" stroke="#111214" stroke-width="10"/>
  <rect x="22" y="22" width="1756" height="576" fill="none" stroke="#f0eee2" stroke-width="4"/>

  <rect x="58" y="56" width="1684" height="52" fill="#f0eee2"/>
  <rect x="68" y="64" width="1664" height="36" fill="#111214"/>
  <rect x="58" y="464" width="1684" height="52" fill="#f0eee2"/>
  <rect x="68" y="472" width="1664" height="36" fill="#111214"/>

  <g fill="#1874ff">
    <rect x="118" y="50" width="18" height="62"/>
    <rect x="390" y="50" width="18" height="62"/>
    <rect x="954" y="50" width="18" height="62"/>
    <rect x="1510" y="50" width="18" height="62"/>
    <rect x="118" y="460" width="18" height="62"/>
    <rect x="674" y="460" width="18" height="62"/>
    <rect x="1238" y="460" width="18" height="62"/>
    <rect x="1690" y="460" width="18" height="62"/>
  </g>
  <g fill="#ffa61c">
    <rect x="680" y="50" width="18" height="62"/>
    <rect x="1244" y="50" width="18" height="62"/>
    <rect x="390" y="460" width="18" height="62"/>
    <rect x="1518" y="460" width="18" height="62"/>
  </g>

  <g fill="#111214" stroke="#f0eee2" stroke-width="7">
    <rect x="70" y="122" width="300" height="330"/>
    <rect x="390" y="122" width="130" height="330"/>
    <rect x="540" y="122" width="320" height="330"/>
    <rect x="880" y="122" width="350" height="330"/>
    <rect x="1250" y="122" width="360" height="330"/>
  </g>

  <path fill="#f0eee2" fill-rule="evenodd"
        d="M100 150H278C318 150 340 172 340 212V264C340 304 318 326 278 326H248V422H178V326H168V422H100ZM168 208V272H258C272 272 280 264 280 250V230C280 216 272 208 258 208Z"/>
  <rect x="248" y="350" width="96" height="72" fill="#f0eee2"/>
  <path d="M94 380H154V344H214V328H250" fill="none" stroke="#1874ff" stroke-width="10"/>
  <rect x="86" y="371" width="18" height="18" fill="#1874ff"/>
  <rect x="241" y="319" width="18" height="18" fill="#1874ff"/>
  <rect x="106" y="154" width="22" height="10" fill="#111214"/>

  <path d="M420 150H490V208H474V366H490V424H420V366H436V208H420Z" fill="#f0eee2"/>
  <rect x="442" y="238" width="26" height="8" fill="#111214"/>
  <rect x="442" y="268" width="26" height="8" fill="#111214"/>
  <rect x="442" y="298" width="26" height="8" fill="#111214"/>
  <rect x="442" y="328" width="26" height="8" fill="#111214"/>

  <path d="M570 150H825V208H632V366H782V322H704V268H842V424H570Z" fill="#f0eee2"/>
  <rect x="780" y="392" width="18" height="18" fill="#1874ff"/>
  <rect x="808" y="392" width="18" height="18" fill="#1874ff"/>
  <rect x="574" y="154" width="28" height="10" fill="#111214"/>

  <path fill="#f0eee2" fill-rule="evenodd"
        d="M910 150H1200V424H910ZM970 208H1140V366H970Z"/>
  <rect x="934" y="174" width="242" height="226" fill="#111214"/>
  <circle cx="1055" cy="287" r="72" fill="none" stroke="#1874ff" stroke-width="24" stroke-dasharray="72 42"/>
  <rect x="1044" y="178" width="22" height="48" fill="#ffa61c"/>
  <rect x="1044" y="348" width="22" height="48" fill="#ffa61c"/>
  <rect x="925" y="276" width="48" height="22" fill="#ffa61c"/>
  <rect x="1137" y="276" width="48" height="22" fill="#ffa61c"/>
  <rect x="1021" y="253" width="68" height="68" fill="#111214" stroke="#f0eee2" stroke-width="8"/>
  <g fill="#111214">
    <rect x="940" y="136" width="18" height="18"/>
    <rect x="980" y="136" width="18" height="18"/>
    <rect x="1112" y="136" width="18" height="18"/>
    <rect x="1152" y="136" width="18" height="18"/>
    <rect x="940" y="420" width="18" height="18"/>
    <rect x="980" y="420" width="18" height="18"/>
    <rect x="1112" y="420" width="18" height="18"/>
    <rect x="1152" y="420" width="18" height="18"/>
  </g>

  <path d="M1280 150H1578V208H1342V255H1578V422H1280V364H1516V311H1280Z" fill="#f0eee2"/>
  <path d="M1508 190H1562V224H1612V240H1650" fill="none" stroke="#1874ff" stroke-width="10"/>
  <rect x="1500" y="181" width="18" height="18" fill="#1874ff"/>
  <rect x="1641" y="231" width="18" height="18" fill="#1874ff"/>
  <rect x="1548" y="398" width="24" height="10" fill="#111214"/>

  <path d="M8 74H48M1752 74H1792M8 540H48M1752 540H1792" stroke="#1874ff" stroke-width="10"/>
  <path d="M72 8V40M1728 8V40M72 580V612M1728 580V612" stroke="#ffa61c" stroke-width="12"/>

  <rect x="22" y="552" width="1756" height="46" fill="#111214"/>
  <text x="900" y="584" text-anchor="middle"
        font-family="ui-monospace,SFMono-Regular,Menlo,Consolas,monospace"
        font-size="24" letter-spacing="5" fill="#f0eee2">LOCAL-FIRST   CPU-ONLY   USB-NATIVE</text>
</svg>
